<svg id="Capa_1" enable-background="new 0 0 497.34 497.34" height="512" viewBox="0 0 497.34 497.34" width="512" xmlns="http://www.w3.org/2000/svg"><g><g><path d="m336.145 426.007c-2.309 0-4.586-1.063-6.055-3.067l-13.348-18.21-47.986-64.163c-2.481-3.317-1.803-8.018 1.514-10.498 3.317-2.481 8.019-1.802 10.498 1.514l48.029 64.222 13.391 18.269c2.449 3.341 1.726 8.034-1.615 10.482-1.336.979-2.889 1.451-4.428 1.451z" fill="#ee6161"/></g><g><path d="m203.634 445.261c-4.143 0-7.5-3.357-7.5-7.5v-81.926c0-4.143 3.357-7.5 7.5-7.5s7.5 3.357 7.5 7.5v81.926c0 4.143-3.357 7.5-7.5 7.5z" fill="#ee6161"/></g><g><path d="m153.525 445.263c-.971 0-1.957-.189-2.907-.59-3.817-1.606-5.609-6.005-4.002-9.822l9.865-23.434 25.57-58.582c1.657-3.797 6.079-5.529 9.874-3.874 3.797 1.657 5.53 6.078 3.874 9.874l-25.532 58.492-9.827 23.344c-1.207 2.867-3.989 4.592-6.915 4.592z" fill="#ee6161"/></g><g><path d="m54.776 335.324c-2.695 0-5.3-1.457-6.644-4.008-1.93-3.665-.522-8.2 3.143-10.131l16.374-8.621 47.197-26.853c3.6-2.05 8.18-.791 10.228 2.81 2.049 3.601.79 8.18-2.81 10.228l-47.304 26.912c-.071.041-.143.08-.215.118l-16.482 8.679c-1.114.587-2.31.866-3.487.866z" fill="#ee6161"/></g><g><path d="m34.262 285.468c-3.692 0-6.91-2.729-7.422-6.489-.559-4.104 2.315-7.885 6.42-8.443l26.253-3.573 79.552-13.011c4.101-.676 7.944 2.104 8.612 6.19.669 4.088-2.103 7.944-6.19 8.612l-79.65 13.027c-.066.011-.133.021-.199.03l-26.354 3.587c-.343.048-.685.07-1.022.07z" fill="#ee6161"/></g><g><path d="m192.637 189.811c-2.777 0-5.446-1.549-6.746-4.212l-37.678-77.197-14.544-27.06c-1.961-3.648-.593-8.196 3.056-10.157 3.649-1.96 8.195-.593 10.157 3.056l14.613 27.189c.046.086.091.173.134.261l37.742 77.328c1.816 3.723.271 8.213-3.45 10.03-1.059.517-2.181.762-3.284.762z" fill="#ee6161"/></g><path d="m399.992 252.057c.061 1.875.099 3.756.099 5.646 0 2.515-.056 5.016-.166 7.504-.133 3.012 1.793 5.727 4.687 6.573l24.706 7.219c1.504-8.731 9.746-14.658 18.521-13.261 9.031 0 15.259 7.297 13.839 16.217l-4.299 27.002c-1.408 8.845-9.719 14.873-18.564 13.466-8.775-1.397-14.769-9.59-13.488-18.357l-26.317-.827c-2.94-.092-5.574 1.794-6.44 4.605-4.341 14.097-10.464 27.411-18.107 39.682-1.614 2.592-1.232 5.95.938 8.098l15.196 15.049c5.72-3.872 13.522-3.696 19.095.946 6.754 5.625 7.669 15.659 2.044 22.413l-7.032 8.444c-5.526 6.635-15.4 8.03-22.231 2.748-5.496-4.25-7.404-11.309-5.414-17.484l-18.746-10.925c-2.57-1.498-5.818-1.062-7.919 1.044-18.349 18.393-40.882 32.607-66.053 41.094-2.857.963-4.693 3.741-4.437 6.744l2.187 25.609c8.961-1.806 17.729 4.154 19.213 13.319 1.391 8.593-4.537 16.69-13.048 18.519l-27.011 5.803c-8.919 1.916-16.216-3.98-16.216-13.102-1.866-8.688 3.609-17.236 12.247-19.207l-8.744-24.871c-.975-2.774-3.681-4.548-6.614-4.343-3.954.277-7.944.419-11.968.419-41.634 0-79.768-14.963-109.337-39.794-2.111-1.772-5.107-2.022-7.485-.629l-22.627 13.251 3.164 3.416c8.529 9.208 8.633 23.682-.266 32.533-9.343 9.292-24.443 8.917-33.32-.668l-23.838-25.736c-8.529-9.208-8.633-23.683.266-32.533 9.343-9.292 24.443-8.916 33.32.668l3.541 3.823 15.35-22.136c1.532-2.209 1.553-5.13.051-7.359-18.283-27.124-28.956-59.802-28.956-94.974 0-6.808.404-13.52 1.184-20.118.353-2.993-1.365-5.84-4.187-6.898l-24.091-9.031c-2.148 8.595-10.808 13.894-19.455 11.849-9.165 0-14.938-7.297-12.829-16.217l6.421-27.152c2.003-8.471 10.221-14.231 18.783-12.663 9.133 1.672 14.911 10.561 12.921 19.483l26.18 2.78c2.929.311 5.694-1.381 6.769-4.124 4.914-12.531 11.268-24.338 18.864-35.215 1.724-2.468 1.539-5.791-.451-8.05l-17.001-19.31c-6.131 6.78-16.724 7.201-23.367.714-6.228-6.082-6.276-16.117-.52-22.647l16.209-18.39c5.922-6.719 16.169-7.364 22.888-1.442 6.666 5.875 7.345 16.004 1.572 22.725l21.819 14.8c2.435 1.651 5.668 1.468 7.904-.444 25.133-21.495 56.607-35.786 91.227-39.694 2.991-.338 5.363-2.674 5.742-5.66l3.245-25.529c-9.14-.116-16.46-7.785-15.986-17.057.445-8.694 7.941-15.365 16.646-15.365h24.061c8.705 0 16.202 6.671 16.646 15.365.474 9.272-6.846 16.941-15.986 17.057l3.323 26.146c.372 2.925 2.659 5.228 5.579 5.639 4.734.668 9.398 1.552 13.999 2.601l24.887 7.114c36.197 10.347 67.246 33.8 87.094 65.79 16.18 26.068 23.245 56.774 20.089 87.295z" fill="#f79595"/><g><path d="m123.384 256.248c0-82.421 51.411-152.826 123.91-180.92l-2.271-17.861c9.14-.116 16.46-7.785 15.986-17.057-.445-8.694-7.941-15.365-16.646-15.365h-24.062c-8.705 0-16.202 6.671-16.646 15.365-.474 9.272 6.846 16.941 15.986 17.057l-3.245 25.529c-.38 2.986-2.751 5.323-5.742 5.66-34.62 3.908-66.093 18.199-91.227 39.694-2.236 1.912-5.469 2.096-7.904.444l-21.819-14.8c5.773-6.72 5.094-16.849-1.572-22.725-6.719-5.922-16.966-5.276-22.888 1.442l-16.209 18.39c-5.756 6.53-5.708 16.565.52 22.647 6.642 6.487 17.236 6.066 23.367-.714l17.001 19.31c1.989 2.259 2.174 5.582.451 8.05-7.596 10.877-13.95 22.684-18.864 35.215-1.075 2.742-3.84 4.435-6.77 4.124l-26.18-2.78c1.99-8.922-3.788-17.81-12.921-19.483-8.563-1.568-16.78 4.192-18.783 12.663l-6.421 27.152c-2.109 8.919 3.664 16.217 12.829 16.217 8.647 2.045 17.307-3.254 19.455-11.849l24.091 9.031c2.822 1.058 4.54 3.906 4.187 6.898-.779 6.598-1.184 13.311-1.184 20.118 0 35.172 10.674 67.85 28.957 94.974 1.502 2.229 1.481 5.15-.051 7.359l-15.35 22.136-3.541-3.823c-8.877-9.584-23.977-9.96-33.32-.668-8.899 8.851-8.795 23.325-.266 32.533l23.838 25.737c8.877 9.584 23.977 9.96 33.32.668 8.899-8.851 8.795-23.325.266-32.533l-3.164-3.416 22.627-13.251c2.378-1.393 5.375-1.143 7.485.629 28.819 24.201 65.792 39.025 106.193 39.762-61.496-32.529-103.423-97.146-103.423-171.559z" fill="#f37c7c"/></g><g fill="#f37c7c"><circle cx="203.634" cy="346.932" r="37.853"/><circle cx="309.373" cy="296.966" r="18.999"/></g><path d="m379.906 164.757c-19.848-31.99-50.897-55.444-87.094-65.79l-14.892-4.257-44.631 71.934c-9.584 15.449-10.029 34.156-1.189 50.043 8.839 15.886 24.971 25.37 43.15 25.37h125.404c.834-27.173-6.338-54.074-20.748-77.3z" fill="#f37c7c"/><path d="m467.914 222.057h-192.664c-23.033 0-37.108-25.298-24.965-44.869l96.332-155.264c11.491-18.521 38.44-18.521 49.931 0l96.332 155.264c12.142 19.572-1.934 44.869-24.966 44.869z" fill="#cbbfbb"/><path d="m280.564 185.292 87.253-140.635c1.732-2.792 5.795-2.792 7.528 0l87.257 140.635c1.831 2.951-.291 6.765-3.764 6.765h-174.51c-3.472 0-5.594-3.814-3.764-6.765z" fill="#fbe98c"/><g><path d="m371.583 171.901c-4.143 0-7.5-3.357-7.5-7.5v-8.113c0-4.143 3.357-7.5 7.5-7.5s7.5 3.357 7.5 7.5v8.113c0 4.142-3.357 7.5-7.5 7.5z" fill="#cbbfbb"/></g><g><path d="m371.583 136.031c-4.143 0-7.5-3.357-7.5-7.5v-40.141c0-4.143 3.357-7.5 7.5-7.5s7.5 3.357 7.5 7.5v40.141c0 4.142-3.357 7.5-7.5 7.5z" fill="#cbbfbb"/></g><circle cx="181.827" cy="216.157" fill="#f9c6c6" r="63.272"/></g></svg>